<svg preserveAspectRatio="none" width="100%" height="100%" overflow="visible" style="display: block;" viewBox="0 0 154.342 55.2431" fill="none" xmlns="http://www.w3.org/2000/svg">
<g id="Line 7" filter="url(#filter0_d_0_7)">
<path d="M3.64487 51.642L3.29286 51.2869L3.27833 51.3013L3.26503 51.3168L3.64487 51.642ZM11.8819 43.476L12.2339 43.8311L12.2956 43.7699L12.333 43.6915L11.8819 43.476ZM16.9751 32.8142L16.5723 32.5181L16.5443 32.5561L16.524 32.5987L16.9751 32.8142ZM23.9635 23.3062L24.3685 23.013L23.9666 22.4577L23.5606 23.0101L23.9635 23.3062ZM30.9137 32.9079L30.5087 33.201L30.5598 33.2716L30.6317 33.3207L30.9137 32.9079ZM40.3823 39.3764L40.1003 39.7892L40.7446 40.2294L40.8753 39.4601L40.3823 39.3764ZM42.3679 27.6866L41.9103 27.4851L41.8853 27.5418L41.8749 27.6028L42.3679 27.6866ZM47.0756 16.9932L47.5332 17.1947L47.5411 17.1767L47.5476 17.1581L47.0756 16.9932ZM50.921 5.98419L50.8095 5.4968L50.5401 5.55844L50.449 5.81931L50.921 5.98419ZM56.728 4.65522L57.1982 4.48523L57.0478 4.0691L56.6165 4.16782L56.728 4.65522ZM60.7759 15.8525L60.3057 16.0225L60.4381 16.3887L60.8255 16.3501L60.7759 15.8525ZM72.6236 14.6711L72.9017 14.2556L72.7526 14.1557L72.5739 14.1736L72.6236 14.6711ZM81.1318 20.3669L81.4801 20.0082L81.4476 19.9766L81.4099 19.9514L81.1318 20.3669ZM89.6913 28.68L89.3429 29.0387L89.5706 29.2599L89.8677 29.1479L89.6913 28.68ZM94.4505 26.8855L94.6269 27.3533L94.674 27.3356L94.7166 27.3088L94.4505 26.8855ZM103.59 21.1401L103.641 20.6427L103.47 20.625L103.324 20.7168L103.59 21.1401ZM115.509 22.3696L115.993 22.2451L115.906 21.9079L115.56 21.8722L115.509 22.3696ZM118.412 33.6674L118.907 33.5985L118.903 33.5705L118.896 33.543L118.412 33.6674ZM120.036 45.3337L119.541 45.4027L119.733 46.7871L120.463 45.5946L120.036 45.3337ZM125.289 36.7422L125.449 36.2687L125.07 36.1403L124.862 36.4814L125.289 36.7422ZM130.262 38.4287L130.604 38.0642L130.525 37.99L130.423 37.9552L130.262 38.4287ZM136.082 43.8907L135.74 44.2553L136.281 44.7636L136.548 44.0706L136.082 43.8907ZM140.278 33.0074L140.745 33.1873L140.755 33.1604L140.762 33.1325L140.278 33.0074ZM143.206 21.674L142.731 21.5174L142.726 21.533L142.722 21.549L143.206 21.674ZM146.86 10.5984L146.42 10.3615L146.399 10.4001L146.385 10.4417L146.86 10.5984ZM150.425 3.97121L150.866 4.2081L151.142 3.69486L150.593 3.49999L150.425 3.97121ZM3.57985 51.7179L3.95969 52.0431L4.02472 51.9671L3.64487 51.642L3.26503 51.3168L3.2 51.3928L3.57985 51.7179ZM3.64487 51.642L3.99689 51.9971L12.2339 43.8311L11.8819 43.476L11.5298 43.1209L3.29286 51.2869L3.64487 51.642ZM11.8819 43.476L12.333 43.6915L17.4263 33.0298L16.9751 32.8142L16.524 32.5987L11.4307 43.2605L11.8819 43.476ZM16.9751 32.8142L17.378 33.1104L24.3664 23.6023L23.9635 23.3062L23.5606 23.0101L16.5723 32.5181L16.9751 32.8142ZM23.9635 23.3062L23.5584 23.5993L30.5087 33.201L30.9137 32.9079L31.3187 32.6147L24.3685 23.013L23.9635 23.3062ZM30.9137 32.9079L30.6317 33.3207L40.1003 39.7892L40.3823 39.3764L40.6644 38.9635L31.1958 32.495L30.9137 32.9079ZM40.3823 39.3764L40.8753 39.4601L42.8608 27.7703L42.3679 27.6866L41.8749 27.6028L39.8894 39.2926L40.3823 39.3764ZM42.3679 27.6866L42.8255 27.888L47.5332 17.1947L47.0756 16.9932L46.618 16.7917L41.9103 27.4851L42.3679 27.6866ZM47.0756 16.9932L47.5476 17.1581L51.3931 6.14907L50.921 5.98419L50.449 5.81931L46.6036 16.8283L47.0756 16.9932ZM50.921 5.98419L51.0326 6.47159L56.8396 5.14262L56.728 4.65522L56.6165 4.16782L50.8095 5.4968L50.921 5.98419ZM56.728 4.65522L56.2578 4.8252L60.3057 16.0225L60.7759 15.8525L61.2461 15.6825L57.1982 4.48523L56.728 4.65522ZM60.7759 15.8525L60.8255 16.3501L72.6732 15.1686L72.6236 14.6711L72.5739 14.1736L60.7263 15.355L60.7759 15.8525ZM72.6236 14.6711L72.3454 15.0866L80.8536 20.7824L81.1318 20.3669L81.4099 19.9514L72.9017 14.2556L72.6236 14.6711ZM81.1318 20.3669L80.7834 20.7256L89.3429 29.0387L89.6913 28.68L90.0396 28.3214L81.4801 20.0082L81.1318 20.3669ZM89.6913 28.68L89.8677 29.1479L94.6269 27.3533L94.4505 26.8855L94.2741 26.4176L89.5149 28.2122L89.6913 28.68ZM94.4505 26.8855L94.7166 27.3088L103.856 21.5634L103.59 21.1401L103.324 20.7168L94.1844 26.4622L94.4505 26.8855ZM103.59 21.1401L103.539 21.6374L115.457 22.8669L115.509 22.3696L115.56 21.8722L103.641 20.6427L103.59 21.1401ZM115.509 22.3696L115.024 22.494L117.927 33.7919L118.412 33.6674L118.896 33.543L115.993 22.2451L115.509 22.3696ZM118.412 33.6674L117.917 33.7364L119.541 45.4027L120.036 45.3337L120.531 45.2648L118.907 33.5985L118.412 33.6674ZM120.036 45.3337L120.463 45.5946L125.715 37.0031L125.289 36.7422L124.862 36.4814L119.609 45.0729L120.036 45.3337ZM125.289 36.7422L125.128 37.2158L130.102 38.9022L130.262 38.4287L130.423 37.9552L125.449 36.2687L125.289 36.7422ZM130.262 38.4287L129.92 38.7933L135.74 44.2553L136.082 43.8907L136.424 43.5262L130.604 38.0642L130.262 38.4287ZM136.082 43.8907L136.548 44.0706L140.745 33.1873L140.278 33.0074L139.812 32.8276L135.615 43.7109L136.082 43.8907ZM140.278 33.0074L140.762 33.1325L143.69 21.7991L143.206 21.674L142.722 21.549L139.794 32.8824L140.278 33.0074ZM143.206 21.674L143.681 21.8307L147.335 10.755L146.86 10.5984L146.385 10.4417L142.731 21.5174L143.206 21.674ZM146.86 10.5984L147.3 10.8353L150.866 4.2081L150.425 3.97121L149.985 3.73432L146.42 10.3615L146.86 10.5984ZM150.425 3.97121L150.593 3.49999L149.747 3.2L149.58 3.67122L149.413 4.14244L150.258 4.44243L150.425 3.97121Z" fill="var(--stroke-0, white)"/>
</g>
<defs>
<filter id="filter0_d_0_7" x="2.98023e-08" y="-2.38419e-07" width="154.342" height="55.2431" filterUnits="userSpaceOnUse" color-interpolation-filters="sRGB">
<feFlood flood-opacity="0" result="BackgroundImageFix"/>
<feColorMatrix in="SourceAlpha" type="matrix" values="0 0 0 0 0 0 0 0 0 0 0 0 0 0 0 0 0 0 127 0" result="hardAlpha"/>
<feOffset/>
<feGaussianBlur stdDeviation="1.6"/>
<feComposite in2="hardAlpha" operator="out"/>
<feColorMatrix type="matrix" values="0 0 0 0 0.309804 0 0 0 0 0.776471 0 0 0 0 0.376471 0 0 0 1 0"/>
<feBlend mode="normal" in2="BackgroundImageFix" result="effect1_dropShadow_0_7"/>
<feBlend mode="normal" in="SourceGraphic" in2="effect1_dropShadow_0_7" result="shape"/>
</filter>
</defs>
</svg>
